<?xml version="1.0" standalone="no"?>
<!DOCTYPE svg PUBLIC "-//W3C//DTD SVG 20010904//EN"
 "http://www.w3.org/TR/2001/REC-SVG-20010904/DTD/svg10.dtd">
<svg version="1.0" xmlns="http://www.w3.org/2000/svg"
 width="512.000000pt" height="512.000000pt" viewBox="0 0 512.000000 512.000000"
 preserveAspectRatio="xMidYMid meet">

<g transform="translate(0.000000,512.000000) scale(0.100000,-0.100000)"
fill="#000000" stroke="none">
<path d="M4249 4215 c-26 -8 -68 -30 -95 -47 -87 -59 -88 -62 -235 -819 l-132
-676 123 -304 c135 -335 338 -819 395 -944 71 -156 124 -213 215 -230 44 -8
97 25 122 75 26 53 481 2753 473 2807 -8 52 -40 101 -85 127 -33 20 -52 21
-385 23 -282 2 -359 -1 -396 -12z"/>
<path d="M133 4181 c-69 -17 -117 -72 -128 -146 -9 -57 448 -2753 476 -2812
57 -118 208 -81 291 72 47 88 212 464 409 935 l152 365 -132 695 c-73 382
-140 713 -150 735 -24 55 -75 103 -141 134 l-55 26 -345 2 c-190 1 -360 -2
-377 -6z"/>
<path d="M2312 4109 c-118 -21 -216 -70 -272 -136 -22 -26 -107 -220 -279
-633 -394 -947 -674 -1601 -801 -1875 -23 -49 -52 -117 -65 -151 -65 -172
-195 -314 -288 -314 -36 0 -42 -43 -12 -78 l23 -27 469 -3 c492 -3 562 1 641
40 60 29 134 102 165 164 13 27 165 393 337 814 172 421 313 766 314 767 2 2
155 -347 340 -775 186 -427 350 -797 364 -821 40 -71 100 -129 167 -162 l63
-31 453 4 c450 3 454 3 506 26 59 27 86 53 107 104 l16 36 -43 7 c-96 16 -151
56 -195 140 -14 28 -288 653 -608 1389 -533 1223 -587 1344 -626 1383 -52 53
-103 84 -188 114 -59 21 -85 23 -300 25 -129 2 -259 -1 -288 -7z"/>
<path d="M2448 1725 c-172 -63 -260 -251 -197 -419 81 -218 363 -279 528 -115
203 203 55 552 -232 548 -34 0 -79 -7 -99 -14z"/>
</g>
</svg>
